{
    "asset" : {
        "generator" : "Khronos glTF Blender I/O v1.8.19",
        "version" : "2.0"
    },
    "scene" : 0,
    "scenes" : [
        {
            "name" : "Scene",
            "nodes" : [
                0
            ]
        }
    ],
    "nodes" : [
        {
            "mesh" : 0,
            "name" : "Cube",
            "rotation" : [
                0,
                1,
                0,
                2.6618774427333847e-05
            ]
        }
    ],
    "materials" : [
        {
            "doubleSided" : true,
            "name" : "Base",
            "pbrMetallicRoughness" : {
                "baseColorFactor" : [
                    0.0835312008857727,
                    0.0835312008857727,
                    0.0835312008857727,
                    1
                ],
                "metallicFactor" : 0,
                "roughnessFactor" : 0.4000000059604645
            }
        },
        {
            "doubleSided" : true,
            "name" : "WingTips",
            "pbrMetallicRoughness" : {
                "baseColorFactor" : [
                    0.040934037417173386,
                    0.022035598754882812,
                    0.8000000715255737,
                    1
                ],
                "metallicFactor" : 0,
                "roughnessFactor" : 0.5
            }
        },
        {
            "doubleSided" : true,
            "name" : "Window",
            "pbrMetallicRoughness" : {}
        }
    ],
    "meshes" : [
        {
            "name" : "Cube",
            "primitives" : [
                {
                    "attributes" : {
                        "POSITION" : 0,
                        "NORMAL" : 1,
                        "TEXCOORD_0" : 2
                    },
                    "indices" : 3,
                    "material" : 0
                },
                {
                    "attributes" : {
                        "POSITION" : 4,
                        "NORMAL" : 5,
                        "TEXCOORD_0" : 6
                    },
                    "indices" : 7,
                    "material" : 1
                },
                {
                    "attributes" : {
                        "POSITION" : 8,
                        "NORMAL" : 9,
                        "TEXCOORD_0" : 10
                    },
                    "indices" : 11,
                    "material" : 2
                }
            ]
        }
    ],
    "accessors" : [
        {
            "bufferView" : 0,
            "componentType" : 5126,
            "count" : 282,
            "max" : [
                4.41903018951416,
                1,
                1
            ],
            "min" : [
                -4.41903018951416,
                -1.0502352714538574,
                -3.243163585662842
            ],
            "type" : "VEC3"
        },
        {
            "bufferView" : 1,
            "componentType" : 5126,
            "count" : 282,
            "type" : "VEC3"
        },
        {
            "bufferView" : 2,
            "componentType" : 5126,
            "count" : 282,
            "type" : "VEC2"
        },
        {
            "bufferView" : 3,
            "componentType" : 5123,
            "count" : 498,
            "type" : "SCALAR"
        },
        {
            "bufferView" : 4,
            "componentType" : 5126,
            "count" : 24,
            "max" : [
                4.41903018951416,
                0.5589359998703003,
                -0.5589359998703003
            ],
            "min" : [
                -4.41903018951416,
                -1.0502352714538574,
                -1.5627557039260864
            ],
            "type" : "VEC3"
        },
        {
            "bufferView" : 5,
            "componentType" : 5126,
            "count" : 24,
            "type" : "VEC3"
        },
        {
            "bufferView" : 6,
            "componentType" : 5126,
            "count" : 24,
            "type" : "VEC2"
        },
        {
            "bufferView" : 7,
            "componentType" : 5123,
            "count" : 36,
            "type" : "SCALAR"
        },
        {
            "bufferView" : 8,
            "componentType" : 5126,
            "count" : 4,
            "max" : [
                0.8321077823638916,
                0.8864824771881104,
                -1.0844732522964478
            ],
            "min" : [
                -0.8321077823638916,
                0.12836936116218567,
                -3.104865550994873
            ],
            "type" : "VEC3"
        },
        {
            "bufferView" : 9,
            "componentType" : 5126,
            "count" : 4,
            "type" : "VEC3"
        },
        {
            "bufferView" : 10,
            "componentType" : 5126,
            "count" : 4,
            "type" : "VEC2"
        },
        {
            "bufferView" : 11,
            "componentType" : 5123,
            "count" : 6,
            "type" : "SCALAR"
        }
    ],
    "bufferViews" : [
        {
            "buffer" : 0,
            "byteLength" : 3384,
            "byteOffset" : 0
        },
        {
            "buffer" : 0,
            "byteLength" : 3384,
            "byteOffset" : 3384
        },
        {
            "buffer" : 0,
            "byteLength" : 2256,
            "byteOffset" : 6768
        },
        {
            "buffer" : 0,
            "byteLength" : 996,
            "byteOffset" : 9024
        },
        {
            "buffer" : 0,
            "byteLength" : 288,
            "byteOffset" : 10020
        },
        {
            "buffer" : 0,
            "byteLength" : 288,
            "byteOffset" : 10308
        },
        {
            "buffer" : 0,
            "byteLength" : 192,
            "byteOffset" : 10596
        },
        {
            "buffer" : 0,
            "byteLength" : 72,
            "byteOffset" : 10788
        },
        {
            "buffer" : 0,
            "byteLength" : 48,
            "byteOffset" : 10860
        },
        {
            "buffer" : 0,
            "byteLength" : 48,
            "byteOffset" : 10908
        },
        {
            "buffer" : 0,
            "byteLength" : 32,
            "byteOffset" : 10956
        },
        {
            "buffer" : 0,
            "byteLength" : 12,
            "byteOffset" : 10988
        }
    ],
    "buffers" : [
        {
            "byteLength" : 11000,
            "uri" : "data:application/octet-stream;base64,"
        }
    ]
}
