{
    "asset" : {
        "generator" : "Khronos glTF Blender I/O v1.8.19",
        "version" : "2.0"
    },
    "scene" : 0,
    "scenes" : [
        {
            "name" : "Scene",
            "nodes" : [
                0
            ]
        }
    ],
    "nodes" : [
        {
            "mesh" : 0,
            "name" : "Ship",
            "rotation" : [
                0.01197182945907116,
                -0.7065751552581787,
                -0.011818476021289825,
                0.707438051700592
            ],
            "scale" : [
                2.5477302074432373,
                1,
                1
            ]
        }
    ],
    "materials" : [
        {
            "doubleSided" : true,
            "name" : "BaseMaterial",
            "pbrMetallicRoughness" : {
                "baseColorFactor" : [
                    0.4478068947792053,
                    0.4478068947792053,
                    0.4478068947792053,
                    1
                ],
                "metallicFactor" : 0,
                "roughnessFactor" : 0.4000000059604645
            }
        },
        {
            "doubleSided" : true,
            "name" : "Windscreen",
            "pbrMetallicRoughness" : {}
        },
        {
            "doubleSided" : true,
            "name" : "RearEngine",
            "pbrMetallicRoughness" : {
                "baseColorFactor" : [
                    0.8000000715255737,
                    0.7141903042793274,
                    0,
                    1
                ],
                "metallicFactor" : 0,
                "roughnessFactor" : 0.5
            }
        },
        {
            "doubleSided" : true,
            "name" : "NoseTip",
            "pbrMetallicRoughness" : {
                "baseColorFactor" : [
                    0.8000000715255737,
                    0.0014720296021550894,
                    0,
                    1
                ],
                "metallicFactor" : 0,
                "roughnessFactor" : 0.5
            }
        }
    ],
    "meshes" : [
        {
            "name" : "MainShip",
            "primitives" : [
                {
                    "attributes" : {
                        "POSITION" : 0,
                        "NORMAL" : 1,
                        "TEXCOORD_0" : 2
                    },
                    "indices" : 3,
                    "material" : 0
                },
                {
                    "attributes" : {
                        "POSITION" : 4,
                        "NORMAL" : 5,
                        "TEXCOORD_0" : 6
                    },
                    "indices" : 7,
                    "material" : 1
                },
                {
                    "attributes" : {
                        "POSITION" : 8,
                        "NORMAL" : 9,
                        "TEXCOORD_0" : 10
                    },
                    "indices" : 11,
                    "material" : 2
                },
                {
                    "attributes" : {
                        "POSITION" : 12,
                        "NORMAL" : 13,
                        "TEXCOORD_0" : 14
                    },
                    "indices" : 15,
                    "material" : 3
                }
            ]
        }
    ],
    "accessors" : [
        {
            "bufferView" : 0,
            "componentType" : 5126,
            "count" : 1776,
            "max" : [
                1.0016123056411743,
                1.5913188457489014,
                4.921886920928955
            ],
            "min" : [
                -3.2810466289520264,
                -1.2889504432678223,
                -4.920150279998779
            ],
            "type" : "VEC3"
        },
        {
            "bufferView" : 1,
            "componentType" : 5126,
            "count" : 1776,
            "type" : "VEC3"
        },
        {
            "bufferView" : 2,
            "componentType" : 5126,
            "count" : 1776,
            "type" : "VEC2"
        },
        {
            "bufferView" : 3,
            "componentType" : 5123,
            "count" : 2832,
            "type" : "SCALAR"
        },
        {
            "bufferView" : 4,
            "componentType" : 5126,
            "count" : 24,
            "max" : [
                -0.4084741175174713,
                0.923769474029541,
                1.927951693534851
            ],
            "min" : [
                -1.8476165533065796,
                -0.05145425349473953,
                -1.9271916151046753
            ],
            "type" : "VEC3"
        },
        {
            "bufferView" : 5,
            "componentType" : 5126,
            "count" : 24,
            "type" : "VEC3"
        },
        {
            "bufferView" : 6,
            "componentType" : 5126,
            "count" : 24,
            "type" : "VEC2"
        },
        {
            "bufferView" : 7,
            "componentType" : 5123,
            "count" : 36,
            "type" : "SCALAR"
        },
        {
            "bufferView" : 8,
            "componentType" : 5126,
            "count" : 6,
            "max" : [
                0.854439377784729,
                -0.15873081982135773,
                1.8664485216140747
            ],
            "min" : [
                0.854439377784729,
                -0.8412691950798035,
                -1.8667875528335571
            ],
            "type" : "VEC3"
        },
        {
            "bufferView" : 9,
            "componentType" : 5126,
            "count" : 6,
            "type" : "VEC3"
        },
        {
            "bufferView" : 10,
            "componentType" : 5126,
            "count" : 6,
            "type" : "VEC2"
        },
        {
            "bufferView" : 11,
            "componentType" : 5123,
            "count" : 12,
            "type" : "SCALAR"
        },
        {
            "bufferView" : 12,
            "componentType" : 5126,
            "count" : 270,
            "max" : [
                0.9118261337280273,
                1.5913188457489014,
                4.921886920928955
            ],
            "min" : [
                -3.2810466289520264,
                -1.206966519355774,
                -4.920150279998779
            ],
            "type" : "VEC3"
        },
        {
            "bufferView" : 13,
            "componentType" : 5126,
            "count" : 270,
            "type" : "VEC3"
        },
        {
            "bufferView" : 14,
            "componentType" : 5126,
            "count" : 270,
            "type" : "VEC2"
        },
        {
            "bufferView" : 15,
            "componentType" : 5123,
            "count" : 408,
            "type" : "SCALAR"
        }
    ],
    "bufferViews" : [
        {
            "buffer" : 0,
            "byteLength" : 21312,
            "byteOffset" : 0
        },
        {
            "buffer" : 0,
            "byteLength" : 21312,
            "byteOffset" : 21312
        },
        {
            "buffer" : 0,
            "byteLength" : 14208,
            "byteOffset" : 42624
        },
        {
            "buffer" : 0,
            "byteLength" : 5664,
            "byteOffset" : 56832
        },
        {
            "buffer" : 0,
            "byteLength" : 288,
            "byteOffset" : 62496
        },
        {
            "buffer" : 0,
            "byteLength" : 288,
            "byteOffset" : 62784
        },
        {
            "buffer" : 0,
            "byteLength" : 192,
            "byteOffset" : 63072
        },
        {
            "buffer" : 0,
            "byteLength" : 72,
            "byteOffset" : 63264
        },
        {
            "buffer" : 0,
            "byteLength" : 72,
            "byteOffset" : 63336
        },
        {
            "buffer" : 0,
            "byteLength" : 72,
            "byteOffset" : 63408
        },
        {
            "buffer" : 0,
            "byteLength" : 48,
            "byteOffset" : 63480
        },
        {
            "buffer" : 0,
            "byteLength" : 24,
            "byteOffset" : 63528
        },
        {
            "buffer" : 0,
            "byteLength" : 3240,
            "byteOffset" : 63552
        },
        {
            "buffer" : 0,
            "byteLength" : 3240,
            "byteOffset" : 66792
        },
        {
            "buffer" : 0,
            "byteLength" : 2160,
            "byteOffset" : 70032
        },
        {
            "buffer" : 0,
            "byteLength" : 816,
            "byteOffset" : 72192
        }
    ],
    "buffers" : [
        {
            "byteLength" : 73008,
            "uri" : "data:application/octet-stream;base64,"
        }
    ]
}
