{
    "asset" : {
        "generator" : "Khronos glTF Blender I/O v1.8.19",
        "version" : "2.0"
    },
    "scene" : 0,
    "scenes" : [
        {
            "name" : "Scene",
            "nodes" : [
                0
            ]
        }
    ],
    "nodes" : [
        {
            "mesh" : 0,
            "name" : "XX Blast",
            "rotation" : [
                0.7071068286895752,
                0,
                0,
                0.7071068286895752
            ]
        }
    ],
    "materials" : [
        {
            "doubleSided" : true,
            "name" : "Edge",
            "pbrMetallicRoughness" : {
                "baseColorFactor" : [
                    0.00540157500654459,
                    0,
                    0.8000000715255737,
                    1
                ],
                "metallicFactor" : 0,
                "roughnessFactor" : 0.5
            }
        },
        {
            "doubleSided" : true,
            "name" : "Sides",
            "pbrMetallicRoughness" : {
                "baseColorFactor" : [
                    0.800000011920929,
                    0.800000011920929,
                    0.800000011920929,
                    1
                ],
                "metallicFactor" : 0,
                "roughnessFactor" : 0.5
            }
        },
        {
            "doubleSided" : true,
            "name" : "Face",
            "pbrMetallicRoughness" : {
                "baseColorFactor" : [
                    0.8000000715255737,
                    0,
                    0,
                    1
                ],
                "metallicFactor" : 0,
                "roughnessFactor" : 0.5
            }
        }
    ],
    "meshes" : [
        {
            "name" : "Text",
            "primitives" : [
                {
                    "attributes" : {
                        "POSITION" : 0,
                        "NORMAL" : 1,
                        "TEXCOORD_0" : 2
                    },
                    "indices" : 3,
                    "material" : 0
                },
                {
                    "attributes" : {
                        "POSITION" : 4,
                        "NORMAL" : 5,
                        "TEXCOORD_0" : 6
                    },
                    "indices" : 7,
                    "material" : 1
                },
                {
                    "attributes" : {
                        "POSITION" : 8,
                        "NORMAL" : 9,
                        "TEXCOORD_0" : 10
                    },
                    "indices" : 11,
                    "material" : 2
                }
            ]
        }
    ],
    "accessors" : [
        {
            "bufferView" : 0,
            "componentType" : 5126,
            "count" : 11079,
            "max" : [
                2.8595070838928223,
                0.08999998867511749,
                0.3313530683517456
            ],
            "min" : [
                -2.7824954986572266,
                -0.08999998867511749,
                -0.32395482063293457
            ],
            "type" : "VEC3"
        },
        {
            "bufferView" : 1,
            "componentType" : 5126,
            "count" : 11079,
            "type" : "VEC3"
        },
        {
            "bufferView" : 2,
            "componentType" : 5126,
            "count" : 11079,
            "type" : "VEC2"
        },
        {
            "bufferView" : 3,
            "componentType" : 5123,
            "count" : 48057,
            "type" : "SCALAR"
        },
        {
            "bufferView" : 4,
            "componentType" : 5126,
            "count" : 1807,
            "max" : [
                2.8595070838928223,
                0.08809015899896622,
                0.3313530683517456
            ],
            "min" : [
                -2.7824954986572266,
                -0.08999998867511749,
                -0.32395482063293457
            ],
            "type" : "VEC3"
        },
        {
            "bufferView" : 5,
            "componentType" : 5126,
            "count" : 1807,
            "type" : "VEC3"
        },
        {
            "bufferView" : 6,
            "componentType" : 5126,
            "count" : 1807,
            "type" : "VEC2"
        },
        {
            "bufferView" : 7,
            "componentType" : 5123,
            "count" : 5448,
            "type" : "SCALAR"
        },
        {
            "bufferView" : 8,
            "componentType" : 5126,
            "count" : 1701,
            "max" : [
                2.8477799892425537,
                0.08999998867511749,
                0.32135307788848877
            ],
            "min" : [
                -2.7600419521331787,
                0.08999998867511749,
                -0.31377848982810974
            ],
            "type" : "VEC3"
        },
        {
            "bufferView" : 9,
            "componentType" : 5126,
            "count" : 1701,
            "type" : "VEC3"
        },
        {
            "bufferView" : 10,
            "componentType" : 5126,
            "count" : 1701,
            "type" : "VEC2"
        },
        {
            "bufferView" : 11,
            "componentType" : 5123,
            "count" : 2223,
            "type" : "SCALAR"
        }
    ],
    "bufferViews" : [
        {
            "buffer" : 0,
            "byteLength" : 132948,
            "byteOffset" : 0
        },
        {
            "buffer" : 0,
            "byteLength" : 132948,
            "byteOffset" : 132948
        },
        {
            "buffer" : 0,
            "byteLength" : 88632,
            "byteOffset" : 265896
        },
        {
            "buffer" : 0,
            "byteLength" : 96114,
            "byteOffset" : 354528
        },
        {
            "buffer" : 0,
            "byteLength" : 21684,
            "byteOffset" : 450644
        },
        {
            "buffer" : 0,
            "byteLength" : 21684,
            "byteOffset" : 472328
        },
        {
            "buffer" : 0,
            "byteLength" : 14456,
            "byteOffset" : 494012
        },
        {
            "buffer" : 0,
            "byteLength" : 10896,
            "byteOffset" : 508468
        },
        {
            "buffer" : 0,
            "byteLength" : 20412,
            "byteOffset" : 519364
        },
        {
            "buffer" : 0,
            "byteLength" : 20412,
            "byteOffset" : 539776
        },
        {
            "buffer" : 0,
            "byteLength" : 13608,
            "byteOffset" : 560188
        },
        {
            "buffer" : 0,
            "byteLength" : 4446,
            "byteOffset" : 573796
        }
    ],
    "buffers" : [
        {
            "byteLength" : 578244,
            "uri" : "data:application/octet-stream;base64,"
        }
    ]
}
